<?xml version="1.0" encoding="UTF-8"?>
<svg version="1.1" xmlns="http://www.w3.org/2000/svg" width="2000" height="2000">
<path d="M0 0 C660 0 1320 0 2000 0 C2000 660 2000 1320 2000 2000 C1340 2000 680 2000 0 2000 C0 1340 0 680 0 0 Z " fill="#FEF8F1" transform="translate(0,0)"/>
<path d="M0 0 C1.37410926 2.74821851 1.44042682 5.25834416 1.76171875 8.3203125 C1.86850449 9.32031281 1.86850449 9.32031281 1.97744751 10.34051514 C2.21799262 12.60161996 2.45290495 14.86327058 2.6875 17.125 C2.94521581 19.5800406 3.20390642 22.03497709 3.4627533 24.48989868 C3.65271802 26.29191316 3.84220453 28.0939781 4.03126526 29.89608765 C4.73282338 36.55650134 5.46441597 43.21322826 6.20823669 49.86904907 C6.77459375 54.94177636 7.33402736 60.01525773 7.89297485 65.08880615 C8.17209918 67.60788945 8.4541313 70.1266523 8.73910522 72.64508057 C9.14275271 76.21827321 9.53539854 79.79252466 9.92578125 83.3671875 C10.04950104 84.43870056 10.17322083 85.51021362 10.3006897 86.61419678 C10.87515483 91.97475834 11.09599933 96.6679777 10 102 C9.69642578 103.51134521 9.69642578 103.51134521 9.38671875 105.05322266 C9.15597656 106.0797998 8.92523437 107.10637695 8.6875 108.1640625 C8.42098633 109.35080566 8.15447266 110.53754883 7.87988281 111.76025391 C7.58952148 113.03562012 7.29916016 114.31098633 7 115.625 C6.85026733 116.28618835 6.70053467 116.94737671 6.54626465 117.62860107 C3.54338647 130.87758957 0.34980893 144.07932801 -2.890625 157.27197266 C-3.2552662 158.75682173 -3.61985091 160.24168467 -3.984375 161.7265625 C-4.24462463 162.78660995 -4.24462463 162.78660995 -4.51013184 163.86807251 C-6.06714977 170.23171893 -7.54982083 176.61110853 -9 183 C-10.32 183 -11.64 183 -13 183 C-13 184.32 -13 185.64 -13 187 C-12.34 187 -11.68 187 -11 187 C-11.67103314 194.65959782 -13.18474971 202.00518288 -14.875 209.5 C-15.13152344 210.67175781 -15.38804687 211.84351563 -15.65234375 213.05078125 C-15.90886719 214.19933594 -16.16539062 215.34789062 -16.4296875 216.53125 C-16.65897949 217.55798828 -16.88827148 218.58472656 -17.12451172 219.64257812 C-17.84015736 222.38701729 -18.65032048 225.0252339 -19.55471802 227.70983887 C-19.8252556 228.51485588 -20.09579319 229.31987289 -20.37452888 230.14928436 C-20.58093435 230.76002052 -20.78733982 231.37075668 -21 232 C-33.76935683 232.25514099 -46.53810519 232.4504557 -59.30949402 232.56993389 C-65.24028701 232.62728628 -71.16933342 232.70503831 -77.09912109 232.82983398 C-82.82457561 232.94957191 -88.54835327 233.01516942 -94.27496338 233.04364967 C-96.45683189 233.06393772 -98.63861096 233.10355977 -100.81976318 233.16303062 C-117.55796487 233.6011586 -117.55796487 233.6011586 -121.72674561 230.86783218 C-124.66513508 228.02542155 -126.47604125 224.75524514 -128 221 C-127.34 220.01 -126.68 219.02 -126 218 C-125.34 218 -124.68 218 -124 218 C-124.33 217.34 -124.66 216.68 -125 216 C-126.093125 216.103125 -127.18625 216.20625 -128.3125 216.3125 C-132 216 -132 216 -134 213.75 C-135.04764304 210.86898163 -135.1354047 209.78690244 -134 207 C-133.34 207 -132.68 207 -132 207 C-132.433125 206.37351562 -132.86625 205.74703125 -133.3125 205.1015625 C-134.1478125 203.87566406 -134.1478125 203.87566406 -135 202.625 C-135.8353125 201.40683594 -135.8353125 201.40683594 -136.6875 200.1640625 C-138 198 -138 198 -138 196 C-137.01 196 -136.02 196 -135 196 C-135.495 195.2575 -135.99 194.515 -136.5 193.75 C-138 191 -138 191 -138 187 C-137.34 187 -136.68 187 -136 187 C-136.53109375 186.20335937 -137.0621875 185.40671875 -137.609375 184.5859375 C-139.73958333 181.390625 -141.86979167 178.1953125 -144 175 C-144.74765625 173.91976563 -145.4953125 172.83953125 -146.265625 171.7265625 C-148 169 -148 169 -148 167 C-151.62479336 169.95901499 -154.96685969 172.84208267 -157.96484375 176.4375 C-163.65871353 183.02968368 -169.98209886 189.03740398 -176.17529297 195.15478516 C-183.52176202 202.34271118 -183.52176202 202.34271118 -190.4375 209.9375 C-196.28265714 216.79610319 -202.91789381 222.96950241 -209.32080078 229.30029297 C-218.9825453 238.84799469 -218.9825453 238.84799469 -228 249 C-228.50072021 249.59554688 -229.00144043 250.19109375 -229.51733398 250.8046875 C-230.68445419 252.19792846 -231.84337683 253.59803253 -233 255 C-232.67 255.33 -232.34 255.66 -232 256 C-231.95919217 257.99958364 -231.95745644 260.00045254 -232 262 C-232.66 262 -233.32 262 -234 262 C-235.625 260 -235.625 260 -237 258 C-238.33371713 259.47882062 -239.66694665 260.958081 -241 262.4375 C-242.17573397 263.74182987 -243.35395123 265.0442277 -244.55639648 266.32397461 C-246.09831268 268.04635215 -246.09831268 268.04635215 -247.55493164 270.31860352 C-250.39344293 274.2178359 -252.4818395 276.620744 -257.26123047 277.81469727 C-261.34740561 278.12427218 -265.3446532 278.14382979 -269.4375 278.0625 C-270.95484563 278.06494863 -272.47218945 278.07146635 -273.98950195 278.08178711 C-277.24428206 278.09573391 -280.4973357 278.08185734 -283.75195312 278.046875 C-289.3089628 277.98909345 -294.86470217 278.00733828 -300.421875 278.03125 C-310.28157648 278.06702911 -320.14038224 278.04876913 -330 278 C-335.51241653 268.26759295 -340.93237354 258.49923157 -346.1875 248.625 C-347.16083945 246.80139381 -348.13486745 244.97815645 -349.1089325 243.15493774 C-349.76937071 241.91869098 -350.42961928 240.68234288 -351.0896759 239.44589233 C-354.97302246 232.1727442 -358.88433772 224.91468488 -362.79736328 217.6574707 C-365.71638087 212.2431904 -368.63000292 206.82617072 -371.53125 201.40234375 C-377.87607594 189.55522735 -384.31218968 177.77493204 -391.00219727 166.1184082 C-391.51322998 165.22468506 -392.0242627 164.33096191 -392.55078125 163.41015625 C-393.22620972 162.23658569 -393.22620972 162.23658569 -393.9152832 161.03930664 C-395 159 -395 159 -396 156 C-380.85997268 146.49521858 -380.85997268 146.49521858 -374.125 142.375 C-372.98417969 141.67503906 -372.98417969 141.67503906 -371.8203125 140.9609375 C-370 140 -370 140 -368 140 C-368 140.99 -368 141.98 -368 143 C-367.01 142.67 -366.02 142.34 -365 142 C-364.67 141.34 -364.34 140.68 -364 140 C-364.66 140 -365.32 140 -366 140 C-364.83636894 136.50910682 -364.34803855 136.33845131 -361.2578125 134.64453125 C-360.45287354 134.19537354 -359.64793457 133.74621582 -358.81860352 133.28344727 C-357.92971436 132.79803467 -357.0408252 132.31262207 -356.125 131.8125 C-354.19801578 130.7365266 -352.27229532 129.65828767 -350.34765625 128.578125 C-349.31785645 128.00126953 -348.28805664 127.42441406 -347.22705078 126.83007812 C-341.6254362 123.6533719 -336.09578526 120.35633836 -330.5625 117.0625 C-329.4068761 116.37555609 -328.25119566 115.68870729 -327.09545898 115.00195312 C-324.81560183 113.64701413 -322.53612661 112.29143934 -320.25683594 110.93554688 C-315.4055676 108.05242428 -310.54697853 105.18175591 -305.6875 102.3125 C-303.92838247 101.27344249 -302.16926787 100.23438001 -300.41015625 99.1953125 C-299.53762207 98.68000977 -298.66508789 98.16470703 -297.76611328 97.63378906 C-292.71859713 94.65250238 -287.67185774 91.66990109 -282.625 88.6875 C-280.76302393 87.58723434 -278.90104507 86.48697342 -277.0390625 85.38671875 C-276.25740723 84.92483154 -275.47575195 84.46294434 -274.67041016 83.98706055 C-274.1191748 83.66133057 -273.56793945 83.33560059 -273 83 C-270.48798138 85.51201862 -269.71053973 87.84237683 -268.38623047 91.14624023 C-268.13234558 91.7756955 -267.87846069 92.40515076 -267.61688232 93.05368042 C-266.77843038 95.13659809 -265.94758977 97.22245512 -265.1171875 99.30859375 C-264.5374225 100.75598585 -263.95735039 102.20325496 -263.37698364 103.65040588 C-262.1615245 106.68462868 -260.94982413 109.72031846 -259.74072266 112.75708008 C-258.18970044 116.65172452 -256.62942336 120.5425814 -255.06631279 124.43238735 C-253.86671108 127.42055677 -252.67203948 130.4106779 -251.47885513 133.40141487 C-250.9054369 134.8369634 -250.33047788 136.27189746 -249.75396347 137.70620537 C-248.94928199 139.71030029 -248.15126955 141.71692373 -247.35498047 143.72436523 C-246.89912567 144.86638901 -246.44327087 146.00841278 -245.97360229 147.18504333 C-245 150 -245 150 -245 153 C-246.32 153.33 -247.64 153.66 -249 154 C-249 154.66 -249 155.32 -249 156 C-248.34 156 -247.68 156 -247 156 C-247 158.31 -247 160.62 -247 163 C-246.01 163 -245.02 163 -244 163 C-244 162.01 -244 161.02 -244 160 C-243.34 160 -242.68 160 -242 160 C-242 161.98 -242 163.96 -242 166 C-241.38125 166.04125 -240.7625 166.0825 -240.125 166.125 C-239.073125 166.558125 -239.073125 166.558125 -238 167 C-237.34 168.98 -236.68 170.96 -236 173 C-230.72 173.33 -225.44 173.66 -220 174 C-221.74367401 169.16894371 -221.74367401 169.16894371 -223.4987793 164.34204102 C-225.28019129 159.34924427 -226.80922301 154.29821628 -228.28125 149.20703125 C-230.17717916 142.66145265 -232.2065158 136.16994281 -234.33203125 129.6953125 C-234.61644577 128.82859421 -234.90086029 127.96187592 -235.19389343 127.06889343 C-236.36576527 123.50549274 -237.54156702 119.94340847 -238.72045898 116.38232422 C-239.5947661 113.7378822 -240.46371023 111.09172501 -241.33203125 108.4453125 C-241.60070511 107.63917511 -241.86937897 106.83303772 -242.14619446 106.00247192 C-243.16331509 102.8955369 -244 100.29163624 -244 97 C-242.45532227 95.7890625 -242.45532227 95.7890625 -240.31640625 94.625 C-239.55392578 94.19703125 -238.79144531 93.7690625 -238.00585938 93.328125 C-237.19955078 92.88984375 -236.39324219 92.4515625 -235.5625 92 C-233.97585312 91.13339769 -232.39356971 90.25874391 -230.81640625 89.375 C-230.10943604 88.99085938 -229.40246582 88.60671875 -228.67407227 88.2109375 C-226.68185746 87.01778703 -226.68185746 87.01778703 -226 84 C-225.33097656 83.93039062 -224.66195312 83.86078125 -223.97265625 83.7890625 C-219.24968215 82.53539526 -215.49409098 79.72595712 -211.43945312 77.0625 C-206.48018259 73.93242774 -206.48018259 73.93242774 -203.87646484 74.29882812 C-200.33179052 75.62335384 -198.53483438 78.65791475 -197 82 C-197.25 85.5625 -197.25 85.5625 -198 89 C-197.68493373 92.14221967 -197.68493373 92.14221967 -197 95 C-196.896875 95.721875 -196.79375 96.44375 -196.6875 97.1875 C-195.41486572 100.54262674 -192.4009132 101.78045229 -189.375 103.4375 C-186.84176668 105.10410087 -186.05854576 106.20928844 -185 109 C-187 111 -187 111 -189.49609375 111.08203125 C-190.46675781 110.99308594 -191.43742188 110.90414063 -192.4375 110.8125 C-193.40558594 110.73644531 -194.37367188 110.66039062 -195.37109375 110.58203125 C-198.24307037 109.94618501 -199.27982143 109.34993886 -201 107 C-201 106.34 -201 105.68 -201 105 C-204.63 106.98 -208.26 108.96 -212 111 C-211.67 112.65 -211.34 114.3 -211 116 C-210.30132813 115.90460938 -209.60265625 115.80921875 -208.8828125 115.7109375 C-207.97273437 115.60007812 -207.06265625 115.48921875 -206.125 115.375 C-204.76761719 115.20097656 -204.76761719 115.20097656 -203.3828125 115.0234375 C-202.20332031 115.01183594 -202.20332031 115.01183594 -201 115 C-200.34 115.66 -199.68 116.32 -199 117 C-199.03287583 119.72869407 -199.56397771 122.2966618 -200 125 C-197.83969032 123.16142682 -197.83969032 123.16142682 -197.3125 120.625 C-195.33497245 116.6699449 -193.01730983 115.80086303 -189 114 C-186.2942015 114.07516107 -185.35814922 114.74065056 -183.1875 116.3125 C-182 118 -182 118 -182.3125 120.1875 C-182.539375 120.785625 -182.76625 121.38375 -183 122 C-183.598125 121.67 -184.19625 121.34 -184.8125 121 C-187.05386471 119.79212012 -187.05386471 119.79212012 -190 120 C-189.67 121.65 -189.34 123.3 -189 125 C-185.04 125.99 -185.04 125.99 -181 127 C-181.07863281 128.02867187 -181.15726563 129.05734375 -181.23828125 130.1171875 C-180.95979717 134.65510842 -179.82796862 136.48067755 -177.1875 140.125 C-174.6466341 143.6886917 -172.19860539 147.21312763 -170 151 C-175.75 155 -175.75 155 -178 155 C-178 155.66 -178 156.32 -178 157 C-170.48953203 156.6244766 -163.50703462 154.91900949 -157 151 C-156.07805383 148.93277614 -156.07805383 148.93277614 -156 147 C-155.34 147 -154.68 147 -154 147 C-154.495 146.2575 -154.99 145.515 -155.5 144.75 C-157 142 -157 142 -157 138 C-156.34 138 -155.68 138 -155 138 C-158.1897316 133.1543551 -161.51569509 128.41671557 -164.875 123.6875 C-171.82062836 113.8654526 -171.82062836 113.8654526 -174.75 109.5625 C-175.19859375 108.90378906 -175.6471875 108.24507812 -176.109375 107.56640625 C-177 106 -177 106 -177 104 C-177.66 104 -178.32 104 -179 104 C-180.18579102 102.44628906 -180.18579102 102.44628906 -181.50390625 100.265625 C-181.9935083 99.46898437 -182.48311035 98.67234375 -182.98754883 97.8515625 C-183.50728271 96.99304688 -184.0270166 96.13453125 -184.5625 95.25 C-188.87057289 88.23883537 -193.35748798 81.63059068 -198.55078125 75.25 C-199.02902344 74.5075 -199.50726562 73.765 -200 73 C-198.68459698 69.05379095 -196.34958813 68.14127042 -192.91015625 66.19921875 C-192.29160263 65.84036087 -191.67304901 65.48150299 -191.03575134 65.11177063 C-189.04945228 63.96181294 -187.05627982 62.82442892 -185.0625 61.6875 C-183.75406973 60.93378847 -182.44612135 60.17923974 -181.13867188 59.42382812 C-179.22167563 58.31647126 -177.304163 57.21012416 -175.38394165 56.10836792 C-170.79892508 53.47609644 -166.26330679 50.77012891 -161.75561523 48.00708008 C-160 47 -160 47 -159 47 C-159.79362347 64.07658787 -161.86730798 81.19402868 -165 98 C-160.95629523 95.85796758 -158.54810749 93.53876797 -155.75 89.9375 C-152.76836703 86.18083992 -149.73813954 82.53817695 -146.5 79 C-143.47717579 75.68010514 -140.57487839 72.30235888 -137.75 68.8125 C-134.1452974 64.36147592 -130.44625735 60.00805071 -126.6875 55.6875 C-126.13715088 55.05473145 -125.58680176 54.42196289 -125.01977539 53.77001953 C-123.90133498 52.48458692 -122.78276375 51.19926812 -121.6640625 49.9140625 C-114.27067665 41.40993324 -106.95122087 32.873029 -100 24 C-96.53891463 25.48443842 -94.31486374 27.44630233 -91.6875 30.125 C-90.61048828 31.21167969 -90.61048828 31.21167969 -89.51171875 32.3203125 C-87.58567247 34.37516125 -85.74725582 36.45197607 -83.91723633 38.58935547 C-79.75484451 43.35484406 -75.30770822 47.80045767 -70.8125 52.25 C-69.95116455 53.10754883 -69.0898291 53.96509766 -68.20239258 54.84863281 C-65.4706888 57.56820889 -62.73576725 60.284512 -60 63 C-56.39288149 66.58038026 -52.78918198 70.16415181 -49.1875 73.75 C-48.37063721 74.55856445 -47.55377441 75.36712891 -46.7121582 76.20019531 C-42.47994655 80.41443114 -38.40625054 84.69823011 -34.52563477 89.23950195 C-30.00745821 94.65072315 -30.00745821 94.65072315 -24 98 C-32.18730545 83.62010276 -40.40313592 69.25968391 -48.75805664 54.97631836 C-53.21640296 47.35189079 -57.64702632 39.71180362 -62.0625 32.0625 C-62.6819751 30.9904834 -63.3014502 29.9184668 -63.93969727 28.81396484 C-67.3475646 22.90537711 -70.71201134 16.97618623 -74 11 C-64.12396213 8.76839529 -54.25861029 7.33307406 -44.21020508 6.12792969 C-31.45183318 4.59287701 -18.70005791 2.84919987 -6.09375 0.33203125 C-4 0 -4 0 0 0 Z " fill="#5C3317" transform="translate(946,918)"/>
<path d="M0 0 C0.09498779 0.84030762 0.18997559 1.68061523 0.2878418 2.54638672 C0.66569795 5.88363019 1.04483415 9.22072487 1.42443848 12.55776978 C1.69003751 14.89735217 1.9538976 17.23712699 2.21777344 19.5769043 C3.21303711 28.36003184 4.25904669 37.13419377 5.37890625 45.90234375 C11.08697188 90.88400666 11.08697188 90.88400666 7 109 C7.33 109 7.66 109 8 109 C8.33 107.02 8.66 105.04 9 103 C9.99 103 10.98 103 12 103 C12.33 102.01 12.66 101.02 13 100 C12.34 100 11.68 100 11 100 C11 99.01 11 98.02 11 97 C13.75457718 97.37994168 14.82020574 97.8073633 16.75 99.875 C18 102 18 102 18 105 C17.34 105 16.68 105 16 105 C16.66 105.66 17.32 106.32 18 107 C17.8125 109.0625 17.8125 109.0625 17 111 C15.515 111.495 15.515 111.495 14 112 C14 112.66 14 113.32 14 114 C13.01 113.67 12.02 113.34 11 113 C8.99124558 113.27571139 6.98821313 113.60235737 5 114 C5 113.01 5 112.02 5 111 C4.071875 111.495 3.14375 111.99 2.1875 112.5 C-1 114 -1 114 -4 114 C-4 113.34 -4 112.68 -4 112 C-9.620996 119.22699485 -11.6244715 128.28972885 -14 137 C-13.34 137 -12.68 137 -12 137 C-11.1875 139.6875 -11.1875 139.6875 -11 143 C-11.804375 143.78375 -12.60875 144.5675 -13.4375 145.375 C-16.15652126 148.16033885 -16.3845653 148.49897323 -16.4375 152.125 C-16.29310188 156.0563515 -16.29310188 156.0563515 -14 159 C-10.32272589 161.72390675 -7.3158293 160.63938212 -3 160 C-1 162 -1 162 -0.875 164.625 C-0.91625 165.40875 -0.9575 166.1925 -1 167 C-1.99 166.67 -2.98 166.34 -4 166 C-6.38527445 177.01435554 -8.6303699 188.05485053 -10.78411865 199.1166687 C-11.05115591 200.4875529 -11.31908748 201.85826322 -11.58795166 203.22879028 C-11.97165138 205.18712477 -12.35111306 207.14628813 -12.73046875 209.10546875 C-12.95114014 210.24137451 -13.17181152 211.37728027 -13.39916992 212.54760742 C-14.06005985 216.34510621 -14.52189843 220.1751874 -15 224 C-48 224 -81 224 -115 224 C-118.96 216.74 -122.92 209.48 -127 202 C-130.97731113 194.98654765 -130.97731113 194.98654765 -135 188 C-135.13051758 188.5576001 -135.26103516 189.1152002 -135.39550781 189.68969727 C-138.09094539 201.17835087 -140.89497412 212.61490512 -144 224 C-148.29 224 -152.58 224 -157 224 C-157 222.68 -157 221.36 -157 220 C-160.12197478 221.3089572 -160.12197478 221.3089572 -162 224 C-169.7329625 224.17087131 -177.46610612 224.33020701 -185.19946289 224.48217773 C-187.82060917 224.53496972 -190.44170703 224.59023431 -193.06274414 224.64819336 C-208.76140898 224.9934499 -224.32706784 225.03493369 -240 224 C-240.33394775 224.89227295 -240.66789551 225.7845459 -241.01196289 226.70385742 C-249.78814721 250.14810589 -258.603658 273.5774292 -267.4375 297 C-267.69968952 297.69518612 -267.96187904 298.39037224 -268.2320137 299.1066246 C-271.48739538 307.7379813 -274.74340113 316.36910247 -278 325 C-282.39081087 324.10916283 -285.45507763 321.74290292 -289 319.125 C-289.61617187 318.67769531 -290.23234375 318.23039062 -290.8671875 317.76953125 C-292.05745865 316.9036473 -293.24415491 316.03282215 -294.42675781 315.15649414 C-295.71984133 314.20594532 -297.03663921 313.28773961 -298.359375 312.37890625 C-300.7765756 310.3473067 -301.20495672 307.9814123 -302 305 C-302.83789062 305.10054687 -303.67578125 305.20109375 -304.5390625 305.3046875 C-309.21830226 304.8927454 -311.70601101 302.90546556 -315.375 300.125 C-316.33599609 299.43470703 -316.33599609 299.43470703 -317.31640625 298.73046875 C-318.92416215 297.54779117 -320.46843046 296.27980468 -322 295 C-322 294.34 -322 293.68 -322 293 C-322.5882959 292.88172852 -323.1765918 292.76345703 -323.78271484 292.64160156 C-326.09938273 291.97124226 -327.52783241 291.13589253 -329.4765625 289.734375 C-330.13769043 289.26338379 -330.79881836 288.79239258 -331.47998047 288.30712891 C-332.18783691 287.79327637 -332.89569336 287.27942383 -333.625 286.75 C-334.37281738 286.2142334 -335.12063477 285.6784668 -335.89111328 285.12646484 C-338.26493337 283.42338867 -340.63248219 281.71182255 -343 280 C-344.4840042 278.93437926 -345.96837197 277.86926463 -347.453125 276.8046875 C-351.98080921 273.55297793 -356.49250077 270.27961344 -361 267 C-361.85078125 266.38205566 -362.7015625 265.76411133 -363.578125 265.12744141 C-366.18022073 263.23505189 -368.77821162 261.33716398 -371.375 259.4375 C-372.1779248 258.85371582 -372.98084961 258.26993164 -373.80810547 257.66845703 C-377.46631948 254.98263002 -380.9231574 252.36478242 -384 249 C-375.84903828 242.64898135 -367.59541078 236.454298 -359.26074219 230.34667969 C-355.25048898 227.40539803 -351.2558715 224.44753602 -347.296875 221.4375 C-346.19339722 220.60001221 -346.19339722 220.60001221 -345.06762695 219.74560547 C-343.67507423 218.68614817 -342.28545255 217.62282428 -340.89916992 216.55517578 C-336.22056836 213 -336.22056836 213 -334 213 C-333.94070313 212.40058594 -333.88140625 211.80117187 -333.8203125 211.18359375 C-332.63612984 208.03141229 -330.85207803 207.52670323 -327.875 206.0625 C-319.23528067 202.05752033 -319.23528067 202.05752033 -313.75 194.8125 C-313.37875 193.4203125 -313.37875 193.4203125 -313 192 C-312.01 191.34 -311.02 190.68 -310 190 C-309.360625 190.20625 -308.72125 190.4125 -308.0625 190.625 C-307.381875 190.74875 -306.70125 190.8725 -306 191 C-303.62580082 189.45952223 -303.62580082 189.45952223 -302 187 C-301.66501699 184.33165034 -301.66501699 184.33165034 -302 182 C-300.88625 182.3403125 -300.88625 182.3403125 -299.75 182.6875 C-296.94085007 183.29476698 -296.94085007 183.29476698 -294.6875 181.5625 C-294.130625 181.046875 -293.57375 180.53125 -293 180 C-293.309375 179.195625 -293.309375 179.195625 -293.625 178.375 C-294.1314747 175.16732692 -293.15400225 172.98682934 -292 170 C-292.33 170 -292.66 170 -293 170 C-294.32 170 -295.64 170 -297 170 C-296.67 167.69 -296.34 165.38 -296 163 C-295.01 163.33 -294.02 163.66 -293 164 C-302.36041604 144.77014228 -312.73193039 126.09228676 -323.38671875 107.5546875 C-325.53252516 103.82050698 -327.66132075 100.07897078 -329.75 96.3125 C-330.19859375 95.50425781 -330.6471875 94.69601562 -331.109375 93.86328125 C-332 92 -332 92 -332 90 C-302.3 90 -272.6 90 -242 90 C-242.33 89.01 -242.66 88.02 -243 87 C-242.15066895 87.48218994 -242.15066895 87.48218994 -241.28417969 87.97412109 C-238.83768931 89.07289756 -237.11827998 89.30601568 -234.453125 89.4140625 C-233.60878906 89.45273437 -232.76445313 89.49140625 -231.89453125 89.53125 C-231.02183594 89.5621875 -230.14914062 89.593125 -229.25 89.625 C-228.36183594 89.66367187 -227.47367188 89.70234375 -226.55859375 89.7421875 C-224.3726002 89.83620873 -222.18660938 89.92186143 -220 90 C-220 89.01 -220 88.02 -220 87 C-219.34 87 -218.68 87 -218 87 C-218 87.66 -218 88.32 -218 89 C-207.11 89.495 -207.11 89.495 -196 90 C-195.67 86.7 -195.34 83.4 -195 80 C-194.52791082 77.44909546 -194.01039389 74.90605417 -193.44140625 72.375 C-193.29219223 71.70259277 -193.14297821 71.03018555 -192.98924255 70.33740234 C-192.51910419 68.22367375 -192.04115526 66.11181439 -191.5625 64 C-191.0903256 61.89326396 -190.61981578 59.78616246 -190.14974976 57.67895508 C-189.84690555 56.32183233 -189.54323017 54.96489477 -189.23867798 53.6081543 C-188.22107232 49.05807328 -187.27769786 44.49885252 -186.40991211 39.91796875 C-185.42692475 35.3185949 -185.42692475 35.3185949 -183.07666016 33.56469727 C-182.23925293 33.07026123 -181.4018457 32.5758252 -180.5390625 32.06640625 C-179.60143066 31.50566406 -178.66379883 30.94492187 -177.69775391 30.3671875 C-176.17674072 29.47386719 -176.17674072 29.47386719 -174.625 28.5625 C-172.52004091 27.30471063 -170.41588641 26.04557383 -168.3125 24.78515625 C-167.25289062 24.1523877 -166.19328125 23.51961914 -165.1015625 22.86767578 C-160.57056564 20.13923388 -156.09250663 17.33087283 -151.625 14.5 C-150.88459473 14.03279541 -150.14418945 13.56559082 -149.38134766 13.08422852 C-144.80905188 10.18678344 -140.31474939 7.19592519 -135.86083984 4.11914062 C-134 3 -134 3 -132 3 C-131.78384033 3.93046143 -131.56768066 4.86092285 -131.3449707 5.81958008 C-126.30242915 27.67284679 -126.30242915 27.67284679 -120.73046875 49.39477539 C-118.84922765 56.39424005 -117.26027861 63.45541351 -115.69848633 70.53222656 C-114.85285915 74.34654488 -113.97549146 78.08197396 -112.85546875 81.828125 C-112 85 -112 85 -112 90 C-89.23 90 -66.46 90 -43 90 C-52.9740707 76.14979178 -52.9740707 76.14979178 -63.25 62.5703125 C-67.51398118 57.06537023 -71.6588243 51.46915347 -75.82373047 45.88916016 C-76.43619629 45.0697998 -77.04866211 44.25043945 -77.6796875 43.40625 C-78.25557617 42.63410156 -78.83146484 41.86195313 -79.42480469 41.06640625 C-80.71703027 39.37121138 -82.07297604 37.72476969 -83.4453125 36.09375 C-85 34 -85 34 -85 31 C-84.44243515 30.78861389 -83.8848703 30.57722778 -83.31040955 30.35943604 C-77.33848438 28.09509069 -71.36711665 25.82927963 -65.39605713 23.56265259 C-63.09664943 22.68994083 -60.79713015 21.81752302 -58.49749756 20.94540405 C-41.68326946 14.56948852 -41.68326946 14.56948852 -24.91796875 8.06640625 C-24.1883342 7.78072784 -23.45869965 7.49504944 -22.70695496 7.20071411 C-19.41422303 5.9105898 -16.12460684 4.61337775 -12.83959961 3.30371094 C-11.70917236 2.85930664 -10.57874512 2.41490234 -9.4140625 1.95703125 C-7.97474365 1.38432495 -7.97474365 1.38432495 -6.50634766 0.80004883 C-4 0 -4 0 0 0 Z " fill="#5B3316" transform="translate(1440,926)"/>
<path d="M0 0 C0.02581447 4.77091115 0.04334825 9.54177719 0.05493164 14.31274414 C0.05978752 15.9165925 0.06646247 17.52043699 0.07543945 19.12426758 C0.13466405 30.02507807 -0.05845079 40.90891512 -0.39562786 51.80435431 C-0.92941833 69.1762903 -1.29188418 86.5489789 -1.6001873 103.926157 C-1.68573723 108.7319775 -1.77580201 113.53770788 -1.86671448 118.34342957 C-1.88225874 119.16608852 -1.897803 119.98874747 -1.9138183 120.83633548 C-1.94549341 122.51232228 -1.97717775 124.18830891 -2.0088712 125.86429536 C-2.21905432 136.98861448 -2.42622497 148.11297156 -2.62231445 159.23754883 C-2.75634068 166.83919077 -2.89701667 174.44067762 -3.04539448 182.0420534 C-3.12310382 186.03676866 -3.19744185 190.03148122 -3.26351738 194.02640724 C-3.32523808 197.75585995 -3.39569831 201.48504466 -3.47287369 205.2142086 C-3.51220953 207.22602523 -3.54219635 209.23801788 -3.57188416 211.25 C-3.59843079 212.45296219 -3.62497742 213.65592438 -3.65232849 214.89533997 C-3.67130912 215.93575345 -3.69028975 216.97616693 -3.70984554 218.0481081 C-4.0263026 221.26759 -4.87078469 223.97751939 -6 227 C-5.67 227.33 -5.34 227.66 -5 228 C-4.90575094 229.5417891 -4.88113081 231.08790552 -4.88476562 232.63256836 C-4.88536987 233.62043839 -4.88597412 234.60830841 -4.88659668 235.62611389 C-4.89632507 237.24784767 -4.89632507 237.24784767 -4.90625 238.90234375 C-4.90983521 240.02060043 -4.91342041 241.13885712 -4.91711426 242.29100037 C-4.97553291 254.71735072 -5.22728547 267.1393463 -5.5 279.5625 C-5.54841665 281.85741683 -5.59659459 284.15233872 -5.64453125 286.44726562 C-5.76028787 291.9649046 -5.87891862 297.48247543 -6 303 C-8.475 301.515 -8.475 301.515 -11 300 C-10.34515625 300.93972656 -9.6903125 301.87945313 -9.015625 302.84765625 C-6.29274929 307.61268875 -6.55117241 312.0845511 -6.75 317.4375 C-6.8325 320.593125 -6.915 323.74875 -7 327 C-19.87 327 -32.74 327 -46 327 C-46.33 328.98 -46.66 330.96 -47 333 C-47.33 333 -47.66 333 -48 333 C-48 331.02 -48 329.04 -48 327 C-50.97 327 -53.94 327 -57 327 C-57 325.02 -57 323.04 -57 321 C-57.66 320.67 -58.32 320.34 -59 320 C-59.34375 317.84765625 -59.34375 317.84765625 -59.5 315.0625 C-60.0157081 308.11401191 -60.62536771 301.19859236 -64 295 C-63.360625 294.566875 -62.72125 294.13375 -62.0625 293.6875 C-59.73253997 292.08760823 -59.73253997 292.08760823 -59 289 C-60.32 289 -61.64 289 -63 289 C-64.513279 284.77266193 -65.50203793 280.69810318 -66.2265625 276.26953125 C-66.33512573 275.61823242 -66.44368896 274.96693359 -66.55554199 274.29589844 C-66.79152501 272.88000035 -67.0255665 271.46377758 -67.25787354 270.04727173 C-67.89909897 266.14400513 -68.5577624 262.24371257 -69.21875 258.34375 C-69.35918732 257.51510941 -69.49962463 256.68646881 -69.64431763 255.8327179 C-71.35677361 245.80482733 -73.24493573 235.81003631 -75.125 225.8125 C-79.55166034 202.20831595 -79.55166034 202.20831595 -81.5 190.6875 C-81.66000488 189.75848877 -81.82000977 188.82947754 -81.98486328 187.87231445 C-83.89226415 176.33839622 -83.89226415 176.33839622 -81 172 C-82.485 172.99 -82.485 172.99 -84 174 C-88.54007586 151.48058236 -92.64443174 128.89721292 -96.57556152 106.2638855 C-99.80036373 87.70092124 -103.14591644 69.1657147 -106.66381836 50.65600586 C-106.82300247 49.81362869 -106.98218658 48.97125153 -107.14619446 48.10334778 C-107.44018944 46.54867061 -107.73648221 44.9944254 -108.03556824 43.4407196 C-108.5772469 40.57392826 -109 37.92559345 -109 35 C-95.38122383 30.42926438 -81.76013672 25.86547648 -68.13634872 21.30970001 C-61.81069284 19.19418299 -55.48580595 17.07643595 -49.16259766 14.95361328 C-43.0630167 12.90595737 -36.96151349 10.86413031 -30.85861969 8.82637024 C-28.52786755 8.04698483 -26.19782183 7.26548365 -23.86849213 6.4818573 C-20.61175087 5.3866315 -17.35260378 4.29888135 -14.09277344 3.21289062 C-13.125327 2.88561478 -12.15788055 2.55833893 -11.16111755 2.22114563 C-10.27213272 1.92665024 -9.38314789 1.63215485 -8.46722412 1.32873535 C-7.69660519 1.07063332 -6.92598625 0.81253128 -6.13201523 0.54660797 C-4 0 -4 0 0 0 Z " fill="#5D3518" transform="translate(1071,823)"/>
<path d="M0 0 C7.29641553 4.58748514 12.57911748 9.89985082 15.09375 18.31640625 C16.60382037 28.14915453 14.89769315 36.20323465 9.09375 44.31640625 C6.65082239 46.85483926 4.1801091 48.63454708 1.09375 50.31640625 C0.51238281 50.65285156 -0.06898437 50.98929688 -0.66796875 51.3359375 C-7.74388093 54.69737951 -17.25283199 54.75849849 -24.62890625 52.47265625 C-32.10393823 48.67744276 -37.79455279 42.0448649 -40.90625 34.31640625 C-41.24010175 31.50879614 -41.19325955 28.76339502 -41.09375 25.94140625 C-41.08021484 25.20535156 -41.06667969 24.46929688 -41.05273438 23.7109375 C-41.01769869 21.91243882 -40.96390288 20.11432203 -40.90625 18.31640625 C-38.59625 17.32640625 -36.28625 16.33640625 -33.90625 15.31640625 C-34.89625 14.98640625 -35.88625 14.65640625 -36.90625 14.31640625 C-37.56625 13.98640625 -38.22625 13.65640625 -38.90625 13.31640625 C-38.90625 12.32640625 -38.90625 11.33640625 -38.90625 10.31640625 C-38.29136719 10.47238281 -37.67648437 10.62835937 -37.04296875 10.7890625 C-36.23472656 10.98371094 -35.42648437 11.17835938 -34.59375 11.37890625 C-33.79324219 11.57613281 -32.99273438 11.77335938 -32.16796875 11.9765625 C-29.74667821 12.51526179 -29.74667821 12.51526179 -26.90625 11.31640625 C-24.71875 11.75390625 -24.71875 11.75390625 -22.90625 12.31640625 C-22.90625 12.97640625 -22.90625 13.63640625 -22.90625 14.31640625 C-22.24625 14.31640625 -21.58625 14.31640625 -20.90625 14.31640625 C-18.28125 16.62890625 -18.28125 16.62890625 -15.90625 19.31640625 C-15.90625 20.30640625 -15.90625 21.29640625 -15.90625 22.31640625 C-15.24625 22.31640625 -14.58625 22.31640625 -13.90625 22.31640625 C-14.92260001 18.75918123 -16.16559333 16.91499362 -19.03125 14.69140625 C-19.98 13.90765625 -20.92875 13.12390625 -21.90625 12.31640625 C-21.90625 11.32640625 -21.90625 10.33640625 -21.90625 9.31640625 C-26.52625 9.31640625 -31.14625 9.31640625 -35.90625 9.31640625 C-26.84561497 -1.8513532 -13.71310367 -7.1298202 0 0 Z " fill="#5D3519" transform="translate(1388.90625,877.68359375)"/>
<path d="M0 0 C3.67150853 2.17937775 6.62317462 4.49566536 9.3125 7.8125 C9.3125 8.4725 9.3125 9.1325 9.3125 9.8125 C8.6525 10.06 7.9925 10.3075 7.3125 10.5625 C4.87057938 11.57996693 2.63913173 12.69486714 0.3125 13.9375 C-2.83077576 15.54485692 -5.09597391 16.26144076 -8.6875 15.8125 C-8.8421875 16.616875 -8.8421875 16.616875 -9 17.4375 C-10.15265235 21.41938994 -11.74679225 24.87179225 -14.6875 27.8125 C-14.6875 28.4725 -14.6875 29.1325 -14.6875 29.8125 C-15.3475 29.8125 -16.0075 29.8125 -16.6875 29.8125 C-16.6875 29.1525 -16.6875 28.4925 -16.6875 27.8125 C-17.98123782 28.60077746 -19.27241951 29.39325116 -20.5625 30.1875 C-21.28179688 30.62835937 -22.00109375 31.06921875 -22.7421875 31.5234375 C-24.80543582 32.7978713 -24.80543582 32.7978713 -26.6875 34.8125 C-26.67455203 37.80918927 -26.67455203 37.80918927 -25.6875 40.8125 C-23.75045292 42.70540509 -23.75045292 42.70540509 -21.6875 43.8125 C-22.6775 46.2875 -22.6775 46.2875 -23.6875 48.8125 C-22.6975 48.3175 -22.6975 48.3175 -21.6875 47.8125 C-21.21998212 45.45650765 -21.21998212 45.45650765 -21.0625 42.75 C-20.98773437 41.83089844 -20.91296875 40.91179687 -20.8359375 39.96484375 C-20.78695313 39.25457031 -20.73796875 38.54429688 -20.6875 37.8125 C-17.5485181 36.81599781 -15.45485645 36.9181961 -12.25 37.5625 C-9.90984061 37.93386059 -9.90984061 37.93386059 -7.6875 37.8125 C-4.72839856 35.6869845 -4.72839856 35.6869845 -2.6875 32.8125 C-1.6875 31.8125 -0.6875 30.8125 0.3125 29.8125 C-0.7084375 30.3075 -0.7084375 30.3075 -1.75 30.8125 C-5.19590238 31.98557315 -8.07147422 31.95430493 -11.6875 31.8125 C-10.53576645 29.34449953 -9.63966435 27.76466435 -7.6875 25.8125 C-4.4296875 25.6171875 -4.4296875 25.6171875 -0.5625 25.6875 C1.35949219 25.71457031 1.35949219 25.71457031 3.3203125 25.7421875 C4.80144531 25.77699219 4.80144531 25.77699219 6.3125 25.8125 C5.6525 27.1325 4.9925 28.4525 4.3125 29.8125 C5.3025 30.3075 5.3025 30.3075 6.3125 30.8125 C6.3125 30.1525 6.3125 29.4925 6.3125 28.8125 C8.2925 28.8125 10.2725 28.8125 12.3125 28.8125 C12.3125 27.8225 12.3125 26.8325 12.3125 25.8125 C11.6525 25.8125 10.9925 25.8125 10.3125 25.8125 C10.3125 25.1525 10.3125 24.4925 10.3125 23.8125 C11.6325 23.8125 12.9525 23.8125 14.3125 23.8125 C14.3125 25.7925 14.3125 27.7725 14.3125 29.8125 C12.0025 30.4725 9.6925 31.1325 7.3125 31.8125 C7.3125 32.4725 7.3125 33.1325 7.3125 33.8125 C7.9725 33.8125 8.6325 33.8125 9.3125 33.8125 C9.8075 33.3175 10.3025 32.8225 10.8125 32.3125 C11.3075 31.8175 11.8025 31.3225 12.3125 30.8125 C12.9725 30.8125 13.6325 30.8125 14.3125 30.8125 C13.47413665 38.10307746 9.9313008 43.76024336 4.31640625 48.49609375 C-4.61185403 54.36124719 -14.29144302 54.92927185 -24.625 53.125 C-28.2724423 51.56181044 -30.10023899 49.80827591 -32.6875 46.8125 C-33.9559375 45.4203125 -33.9559375 45.4203125 -35.25 44 C-41.01345131 36.74096956 -42.41362735 30.91901623 -42.1328125 21.51171875 C-41.28757933 14.49035198 -38.56009582 9.23014591 -33.375 4.4375 C-32.16734407 3.53304279 -30.93800523 2.65672294 -29.6875 1.8125 C-29.13835937 1.4 -28.58921875 0.9875 -28.0234375 0.5625 C-20.24486372 -4.37192566 -8.09398905 -3.83463349 0 0 Z " fill="#5D3518" transform="translate(1260.6875,1175.1875)"/>
<path d="M0 0 C0.66 0 1.32 0 2 0 C2.268125 0.804375 2.53625 1.60875 2.8125 2.4375 C3.204375 3.283125 3.59625 4.12875 4 5 C4.99 5.33 5.98 5.66 7 6 C7.99267578 7.76416016 7.99267578 7.76416016 9 10 C10.0170646 11.60529609 11.05841009 13.1953417 12.1171875 14.7734375 C12.72433594 15.6809375 13.33148437 16.5884375 13.95703125 17.5234375 C14.90642578 18.93496094 14.90642578 18.93496094 15.875 20.375 C16.50019531 21.30828125 17.12539063 22.2415625 17.76953125 23.203125 C18.37925781 24.11320313 18.98898437 25.02328125 19.6171875 25.9609375 C20.49455566 27.27143066 20.49455566 27.27143066 21.38964844 28.60839844 C22.36361749 30.05488128 23.3441602 31.49700856 24.33691406 32.93066406 C27 36.79507159 27 36.79507159 27 39 C27.66 39 28.32 39 29 39 C30.3046875 40.80859375 30.3046875 40.80859375 31.875 43.4375 C35.1497489 48.74342226 38.64261526 53.85218793 42.25 58.9375 C43.02899658 60.03759399 43.02899658 60.03759399 43.82373047 61.15991211 C45.79600103 63.93587812 47.76203304 66.69554227 49.859375 69.37890625 C51 71 51 71 51 73 C50.34 73 49.68 73 49 73 C49.99 75.97 50.98 78.94 52 82 C51.34 82.66 50.68 83.32 50 84 C49.505 85.485 49.505 85.485 49 87 C42.1562963 90.94401755 35.82790494 92.65232541 28 92 C28 91.34 28 90.68 28 90 C30.31 88.68 32.62 87.36 35 86 C33.91751309 84.29113021 32.83396706 82.58293129 31.75 80.875 C30.79867187 79.36292969 30.79867187 79.36292969 29.828125 77.8203125 C28.45493657 75.70184659 27.04296356 73.73846712 25.5 71.75 C23.5243151 68.12791101 24.05676776 65.93013431 25 62 C23.081875 61.6596875 23.081875 61.6596875 21.125 61.3125 C18.9140625 60.77734375 18.9140625 60.77734375 17 60 C15.5 57.375 15.5 57.375 15 55 C17.60582371 54.06934867 18.64198224 53.85082593 21.25 54.9375 C22.11625 55.4634375 22.11625 55.4634375 23 56 C22.42655063 53.13275314 22.1385485 52.1385485 20 50 C16.31460636 50.3948636 13.09015801 52.02755872 10 54 C8.62380842 56.29706328 7.86942303 58.44003219 7 61 C6.34 60.67 5.68 60.34 5 60 C5.33 57.36 5.66 54.72 6 52 C2.93456499 51.18856132 0.97442874 51.00451258 -2.1875 51.5625 C-3.115625 51.706875 -4.04375 51.85125 -5 52 C-5.66 51.34 -6.32 50.68 -7 50 C-6.90234375 47.55078125 -6.90234375 47.55078125 -6 45 C-4.00390625 43.41796875 -4.00390625 43.41796875 -1.5625 42.1875 C-0.75941406 41.76855469 0.04367187 41.34960938 0.87109375 40.91796875 C3 40 3 40 5 40 C5.41894531 40.64453125 5.83789062 41.2890625 6.26953125 41.953125 C7.86199598 44.25381855 7.86199598 44.25381855 10.69921875 44.609375 C11.68535156 44.65578125 12.67148437 44.7021875 13.6875 44.75 C15.17830078 44.83507813 15.17830078 44.83507813 16.69921875 44.921875 C17.83810547 44.96054688 17.83810547 44.96054688 19 45 C19 43.68 19 42.36 19 41 C16.79897943 39.46111016 16.79897943 39.46111016 14 38 C11.58783536 36.48039277 10.04861799 35.09626026 8 33 C7.6875 29.5 7.6875 29.5 8 26 C7.814375 25.113125 7.62875 24.22625 7.4375 23.3125 C7 21 7 21 7.6171875 19.0859375 C8.21892925 16.97280465 8.21892925 16.97280465 7.07421875 15.11328125 C6.61660156 14.51902344 6.15898438 13.92476562 5.6875 13.3125 C5.01267578 12.40951172 5.01267578 12.40951172 4.32421875 11.48828125 C3.04923767 9.87006173 3.04923767 9.87006173 1 9 C-0.37891032 6.3147536 -1.11387536 4.70223141 -0.625 1.6875 C-0.41875 1.130625 -0.2125 0.57375 0 0 Z " fill="#FAF3EB" transform="translate(740,983)"/>
<path d="M0 0 C5.28152598 0.07535251 5.28152598 0.07535251 8.3125 2.3125 C9.86996914 5.78140854 10.20863807 8.6148326 10.31640625 12.38671875 C10.43886719 13.04285156 10.56132813 13.69898438 10.6875 14.375 C13.50259993 16.6523501 13.50259993 16.6523501 16.6875 16.375 C16.6875 17.035 16.6875 17.695 16.6875 18.375 C17.6775 18.375 18.6675 18.375 19.6875 18.375 C19.955625 19.40625 20.22375 20.4375 20.5 21.5 C21.50362959 25.03049842 22.9878174 28.11727501 24.6875 31.375 C26.3253552 34.90931912 26.91035051 37.47511608 26.6875 41.375 C26.0275 41.375 25.3675 41.375 24.6875 41.375 C24.6875 40.385 24.6875 39.395 24.6875 38.375 C24.0275 38.375 23.3675 38.375 22.6875 38.375 C22.72875 39.096875 22.77 39.81875 22.8125 40.5625 C22.67828695 43.58229369 21.93579381 45.64435729 20.6875 48.375 C21.3475 48.375 22.0075 48.375 22.6875 48.375 C22.3575 49.695 22.0275 51.015 21.6875 52.375 C17.83020892 51.63394408 14.55744648 50.00930715 11.0625 48.25 C9.91523437 47.69054688 8.76796875 47.13109375 7.5859375 46.5546875 C3.93112322 43.80618835 3.51674562 41.78921603 2.6875 37.375 C2.48125 36.570625 2.275 35.76625 2.0625 34.9375 C1.93875 34.421875 1.815 33.90625 1.6875 33.375 C2.6775 33.375 3.6675 33.375 4.6875 33.375 C4.6875 32.385 4.6875 31.395 4.6875 30.375 C6.6875 30.375 6.6875 30.375 8.3125 31.875 C8.993125 32.6175 8.993125 32.6175 9.6875 33.375 C9.3575 30.735 9.0275 28.095 8.6875 25.375 C8.0275 25.375 7.3675 25.375 6.6875 25.375 C6.3575 26.365 6.0275 27.355 5.6875 28.375 C5.3575 27.385 5.0275 26.395 4.6875 25.375 C2.83005793 24.76432856 2.83005793 24.76432856 0.6875 24.375 C-0.6604743 23.73845658 -1.99846724 23.07894612 -3.3125 22.375 C-3.50642201 16.84822267 -3.0604503 12.61885089 -1.3125 7.375 C-3.9525 7.375 -6.5925 7.375 -9.3125 7.375 C-9.3125 6.385 -9.3125 5.395 -9.3125 4.375 C-8.6525 4.705 -7.9925 5.035 -7.3125 5.375 C-7.0959375 4.4159375 -7.0959375 4.4159375 -6.875 3.4375 C-5.804881 -0.48626967 -3.77249449 0.12991372 0 0 Z " fill="#EFE6DD" transform="translate(1210.3125,1085.625)"/>
<path d="M0 0 C1.32 0 2.64 0 4 0 C4 1.98 4 3.96 4 6 C1.69 6.66 -0.62 7.32 -3 8 C-3 8.66 -3 9.32 -3 10 C-2.34 10 -1.68 10 -1 10 C-0.505 9.505 -0.01 9.01 0.5 8.5 C0.995 8.005 1.49 7.51 2 7 C2.66 7 3.32 7 4 7 C3.16163665 14.29057746 -0.3811992 19.94774336 -5.99609375 24.68359375 C-14.23104379 30.09329777 -23.68074276 31.42455342 -33.328125 29.546875 C-34.90592554 29.09790737 -36.45833012 28.56060723 -38 28 C-36 26.66666667 -34 25.33333333 -32 24 C-31.41810734 21.57478506 -31.41810734 21.57478506 -31.3125 18.875 C-31.24675781 17.96492188 -31.18101563 17.05484375 -31.11328125 16.1171875 C-31.07589844 15.41851563 -31.03851562 14.71984375 -31 14 C-27.8610181 13.00349781 -25.76735645 13.1056961 -22.5625 13.75 C-20.22234061 14.12136059 -20.22234061 14.12136059 -18 14 C-15.04089856 11.8744845 -15.04089856 11.8744845 -13 9 C-12 8 -11 7 -10 6 C-10.680625 6.33 -11.36125 6.66 -12.0625 7 C-15.50840238 8.17307315 -18.38397422 8.14180493 -22 8 C-20.84826645 5.53199953 -19.95216435 3.95216435 -18 2 C-14.7421875 1.8046875 -14.7421875 1.8046875 -10.875 1.875 C-8.95300781 1.90207031 -8.95300781 1.90207031 -6.9921875 1.9296875 C-5.51105469 1.96449219 -5.51105469 1.96449219 -4 2 C-4.66 3.32 -5.32 4.64 -6 6 C-5.34 6.33 -4.68 6.66 -4 7 C-4 6.34 -4 5.68 -4 5 C-2.02 5 -0.04 5 2 5 C2 4.01 2 3.02 2 2 C1.34 2 0.68 2 0 2 C0 1.34 0 0.68 0 0 Z " fill="#60381C" transform="translate(1271,1199)"/>
<path d="M0 0 C0.66 1.32 1.32 2.64 2 4 C3.65 3.01 5.3 2.02 7 1 C7.8971875 1.680625 7.8971875 1.680625 8.8125 2.375 C13.3441448 4.68525029 18.00266227 5.25608808 23 6 C23.33 4.68 23.66 3.36 24 2 C25.32 2.33 26.64 2.66 28 3 C28.22245393 4.60226955 28.42746669 6.20696767 28.625 7.8125 C28.79902344 9.15248047 28.79902344 9.15248047 28.9765625 10.51953125 C29 13 29 13 27 16 C26.34 16 25.68 16 25 16 C25.66 13.36 26.32 10.72 27 8 C26.01 8.33 25.02 8.66 24 9 C23.67 12.3 23.34 15.6 23 19 C24.98 19.66 26.96 20.32 29 21 C29 22.32 29 23.64 29 25 C27.88625 25.20625 26.7725 25.4125 25.625 25.625 C21.73400805 26.61628301 21.73400805 26.61628301 20.5625 30.125 C20.376875 31.07375 20.19125 32.0225 20 33 C19.34 33 18.68 33 18 33 C17.67 30.69 17.34 28.38 17 26 C17.99 26 18.98 26 20 26 C20 24.35 20 22.7 20 21 C18.02 21.99 18.02 21.99 16 23 C15.67 22.34 15.34 21.68 15 21 C13.68 22.32 12.36 23.64 11 25 C11 23.68 11 22.36 11 21 C10.01 21.66 9.02 22.32 8 23 C5.73828125 22.9765625 5.73828125 22.9765625 3.3125 22.625 C2.50425781 22.51414062 1.69601562 22.40328125 0.86328125 22.2890625 C0.24839844 22.19367187 -0.36648438 22.09828125 -1 22 C-1 21.01 -1 20.02 -1 19 C0.65 18.67 2.3 18.34 4 18 C4.66 14.7 5.32 11.4 6 8 C4.68 8 3.36 8 2 8 C2 9.98 2 11.96 2 14 C0.68 14 -0.64 14 -2 14 C-3.45295405 5.96498906 -3.45295405 5.96498906 -1.5625 1.9375 C-1.046875 1.298125 -0.53125 0.65875 0 0 Z " fill="#F7F0E8" transform="translate(1016,933)"/>
<path d="M0 0 C1.32 0 2.64 0 4 0 C4.33 1.65 4.66 3.3 5 5 C6.65 4.67 8.3 4.34 10 4 C10.33 6.64 10.66 9.28 11 12 C5.02667877 15.4753869 0.88490225 16.57374185 -6 16 C-5.48342956 11.5574942 -4.3993519 8.74298897 -2 5 C-1.30177383 3.34630643 -0.62501395 1.68272986 0 0 Z " fill="#F3EAE2" transform="translate(570,1069)"/>
<path d="M0 0 C0 2.83967231 -0.40267181 5.23735711 -1 8 C1.34058637 5.87219421 2.70700306 3.88437779 4 1 C4.66 1 5.32 1 6 1 C7.04644066 2.63790712 8.0398183 4.31008021 9 6 C9.8353125 7.0209375 9.8353125 7.0209375 10.6875 8.0625 C12 10 12 10 12 14 C7.97007218 13.44687265 3.97977076 12.8441938 0 12 C-0.33 13.32 -0.66 14.64 -1 16 C-1.33 16 -1.66 16 -2 16 C-4.59080963 6.00437637 -4.59080963 6.00437637 -2.125 1.8125 C-1.42375 1.214375 -0.7225 0.61625 0 0 Z " fill="#EEE5DB" transform="translate(633,1148)"/>
<path d="M0 0 C4.48341837 -0.36352041 4.48341837 -0.36352041 6.6875 1.1875 C8.24829472 3.34288318 9.03416602 5.52505042 10 8 C10.53625 8.639375 11.0725 9.27875 11.625 9.9375 C13.49837043 12.74755564 13.35943905 14.69316075 13 18 C12.34 18.66 11.68 19.32 11 20 C10.67 17.36 10.34 14.72 10 12 C7.69 12.33 5.38 12.66 3 13 C3 14.65 3 16.3 3 18 C2.01 17.34 1.02 16.68 0 16 C0.74250597 11.91621717 1.82923301 7.98060777 3 4 C1.68 3.34 0.36 2.68 -1 2 C-0.67 1.34 -0.34 0.68 0 0 Z " fill="#F3EBE2" transform="translate(995,971)"/>
<path d="M0 0 C2.75457718 0.37994168 3.82020574 0.8073633 5.75 2.875 C7 5 7 5 7 8 C6.34 8 5.68 8 5 8 C5.66 8.66 6.32 9.32 7 10 C6.8125 12.0625 6.8125 12.0625 6 14 C5.01 14.33 4.02 14.66 3 15 C3 15.66 3 16.32 3 17 C2.01 16.67 1.02 16.34 0 16 C-2.00875442 16.27571139 -4.01178687 16.60235737 -6 17 C-6 16.01 -6 15.02 -6 14 C-5.34 14 -4.68 14 -4 14 C-3.34 11.36 -2.68 8.72 -2 6 C-1.01 6 -0.02 6 1 6 C1.33 5.01 1.66 4.02 2 3 C1.34 3 0.68 3 0 3 C0 2.01 0 1.02 0 0 Z " fill="#704C32" transform="translate(1451,1023)"/>
<path d="M0 0 C4.62 0 9.24 0 14 0 C14 2.64 14 5.28 14 8 C9.38 8 4.76 8 0 8 C0 5.36 0 2.72 0 0 Z " fill="#EAE0D6" transform="translate(659,1124)"/>
<path d="M0 0 C1.32 0 2.64 0 4 0 C4 1.98 4 3.96 4 6 C2.88625 6.28875 1.7725 6.5775 0.625 6.875 C-3.00291092 7.69241329 -3.00291092 7.69241329 -5 10 C-5 9.34 -5 8.68 -5 8 C-5.99 8 -6.98 8 -8 8 C-8.33 7.34 -8.66 6.68 -9 6 C-11.16874252 6.50603992 -12.99967627 6.99983813 -15 8 C-17.3329866 8.04022391 -19.66706666 8.04320247 -22 8 C-20.84826645 5.53199953 -19.95216435 3.95216435 -18 2 C-14.7421875 1.8046875 -14.7421875 1.8046875 -10.875 1.875 C-8.95300781 1.90207031 -8.95300781 1.90207031 -6.9921875 1.9296875 C-5.51105469 1.96449219 -5.51105469 1.96449219 -4 2 C-4.66 3.32 -5.32 4.64 -6 6 C-5.34 6.33 -4.68 6.66 -4 7 C-4 6.34 -4 5.68 -4 5 C-2.02 5 -0.04 5 2 5 C2 4.01 2 3.02 2 2 C1.34 2 0.68 2 0 2 C0 1.34 0 0.68 0 0 Z " fill="#78563D" transform="translate(1271,1199)"/>
<path d="M0 0 C0.33 0.66 0.66 1.32 1 2 C0.67 2.66 0.34 3.32 0 4 C1.98 4 3.96 4 6 4 C6 5.98 6 7.96 6 10 C1.05 10 -3.9 10 -9 10 C-9 8.02 -9 6.04 -9 4 C-7.02 4 -5.04 4 -3 4 C-3 3.34 -3 2.68 -3 2 C-2.01 1.34 -1.02 0.68 0 0 Z " fill="#F9F2EA" transform="translate(674,1167)"/>
<path d="M0 0 C0.66 0 1.32 0 2 0 C5.36842105 13.26315789 5.36842105 13.26315789 3 18 C0.525 17.01 0.525 17.01 -2 16 C-2 12.48283697 -1.17554415 11.62878252 1 9 C-2.37503669 10.1858237 -4.64722731 11.27573689 -7 14 C-7.99 13.67 -8.98 13.34 -10 13 C-8.64569534 8.93708603 -6.27594522 7.9169276 -2.8125 5.59765625 C-0.74260535 3.77311549 -0.37168166 2.68888448 0 0 Z " fill="#F0E7DE" transform="translate(1020,978)"/>
<path d="M0 0 C0.33 3.3 0.66 6.6 1 10 C1.66 10 2.32 10 3 10 C3 10.99 3 11.98 3 13 C1.02 13 -0.96 13 -3 13 C-3 13.66 -3 14.32 -3 15 C-3.99 14.67 -4.98 14.34 -6 14 C-5.01 12.68 -4.02 11.36 -3 10 C-4.65 9.67 -6.3 9.34 -8 9 C-8.33 7.35 -8.66 5.7 -9 4 C-3.375 0 -3.375 0 0 0 Z " fill="#E6DBD0" transform="translate(1270,1191)"/>
<path d="M0 0 C0 1.32 0 2.64 0 4 C-3.01031744 4.93423645 -3.86650268 5.04449911 -7 4 C-6.67 6.31 -6.34 8.62 -6 11 C-8.64 11.33 -11.28 11.66 -14 12 C-14.5625 8.875 -14.5625 8.875 -14 5 C-9.75488873 0.73674723 -5.98527752 -1.78601532 0 0 Z " fill="#F5EEE5" transform="translate(1060,1133)"/>
<path d="M0 0 C0.33 0 0.66 0 1 0 C1 3.3 1 6.6 1 10 C2.98 10.66 4.96 11.32 7 12 C7 13.32 7 14.64 7 16 C5.88625 16.20625 4.7725 16.4125 3.625 16.625 C-0.26599195 17.61628301 -0.26599195 17.61628301 -1.4375 21.125 C-1.623125 22.07375 -1.80875 23.0225 -2 24 C-2.66 24 -3.32 24 -4 24 C-4.33 21.69 -4.66 19.38 -5 17 C-4.01 17 -3.02 17 -2 17 C-1.34 11.39 -0.68 5.78 0 0 Z " fill="#F1E8DF" transform="translate(1038,942)"/>
<path d="M0 0 C0 0.66 0 1.32 0 2 C-1.33333333 3.33333333 -2.66666667 4.66666667 -4 6 C-5.23512079 8.13309192 -5.23512079 8.13309192 -6 10 C-7.32 10 -8.64 10 -10 10 C-9.67 15.28 -9.34 20.56 -9 26 C-9.33 25.34 -9.66 24.68 -10 24 C-10.66 24 -11.32 24 -12 24 C-12 18.39 -12 12.78 -12 7 C-11.01 7 -10.02 7 -9 7 C-8.67 6.01 -8.34 5.02 -8 4 C-2.62857143 0 -2.62857143 0 0 0 Z " fill="#E3D7CC" transform="translate(1413,993)"/>
<path d="M0 0 C0.66 0.66 1.32 1.32 2 2 C2.66 2 3.32 2 4 2 C3.74609375 3.890625 3.74609375 3.890625 3 6 C1.22265625 7.046875 1.22265625 7.046875 -0.9375 7.75 C-2.00291016 8.11351562 -2.00291016 8.11351562 -3.08984375 8.484375 C-5 9 -5 9 -7 9 C-8.42944945 6.64561267 -9.08661261 5.51967567 -8.625 2.75 C-8.41875 2.1725 -8.2125 1.595 -8 1 C-2.25 0 -2.25 0 0 0 Z " fill="#F2E9E0" transform="translate(1022,1085)"/>
<path d="M0 0 C0.433125 0.763125 0.86625 1.52625 1.3125 2.3125 C2.88066775 5.15616749 2.88066775 5.15616749 5.6875 7.0625 C6.450625 7.701875 7.21375 8.34125 8 9 C8 10.32 8 11.64 8 13 C7.34 13 6.68 13 6 13 C5.731875 12.38125 5.46375 11.7625 5.1875 11.125 C4.04443152 8.7004767 4.04443152 8.7004767 1 7 C1 6.34 1 5.68 1 5 C0.34 5 -0.32 5 -1 5 C-1 4.34 -1 3.68 -1 3 C-3.97 2.505 -3.97 2.505 -7 2 C-7.33 2.66 -7.66 3.32 -8 4 C-10.31 3.34 -12.62 2.68 -15 2 C-15 1.34 -15 0.68 -15 0 C-4.21052632 -2.10526316 -4.21052632 -2.10526316 0 0 Z " fill="#EEE4DB" transform="translate(1367,887)"/>
<path d="M0 0 C0.598125 0.309375 1.19625 0.61875 1.8125 0.9375 C4.08956772 2.10209704 4.08956772 2.10209704 7 3 C8.28282363 5.56564725 8.20391953 7.51033069 8.25 10.375 C8.28867188 11.80972656 8.28867188 11.80972656 8.328125 13.2734375 C7.95439914 16.37892147 7.06626291 17.70536066 5 20 C4.63571223 18.0852312 4.28394694 16.16807707 3.9375 14.25 C3.74027344 13.18265625 3.54304688 12.1153125 3.33984375 11.015625 C3.02843063 8.25228095 3.1008584 6.59053383 4 4 C3.34 4 2.68 4 2 4 C2 3.34 2 2.68 2 2 C1.34 2 0.68 2 0 2 C0 1.34 0 0.68 0 0 Z " fill="#E2D6CB" transform="translate(1279,1121)"/>
<path d="M0 0 C0.98484375 0.11988281 1.9696875 0.23976563 2.984375 0.36328125 C3.73203125 0.47027344 4.4796875 0.57726563 5.25 0.6875 C5.25 2.0075 5.25 3.3275 5.25 4.6875 C2.33381479 5.51308668 -0.34535494 5.87670445 -3.375 5.9375 C-4.15101563 5.96328125 -4.92703125 5.9890625 -5.7265625 6.015625 C-6.39429688 5.90734375 -7.06203125 5.7990625 -7.75 5.6875 C-8.41 4.6975 -9.07 3.7075 -9.75 2.6875 C-6.40914528 -0.40676782 -4.45291069 -0.58311926 0 0 Z " fill="#F1E8DF" transform="translate(622.75,1181.3125)"/>
<path d="M0 0 C2.105868 2.105868 2.92752247 3.7365229 4.125 6.4375 C4.47820313 7.21996094 4.83140625 8.00242187 5.1953125 8.80859375 C6 11 6 11 6 14 C4.68 14.33 3.36 14.66 2 15 C2.33 12.69 2.66 10.38 3 8 C2.34 8 1.68 8 1 8 C1 8.99 1 9.98 1 11 C0.01 11 -0.98 11 -2 11 C-2 8.69 -2 6.38 -2 4 C-2.66 4 -3.32 4 -4 4 C-4 3.34 -4 2.68 -4 2 C-2.68 1.34 -1.36 0.68 0 0 Z " fill="#EDE3D9" transform="translate(701,1070)"/>
<path d="M0 0 C2 1.375 2 1.375 4 3 C4 3.66 4 4.32 4 5 C5.65 5 7.3 5 9 5 C9 7.64 9 10.28 9 13 C5.09839108 11.73461332 2.97581195 10.65525211 1 7 C0.3125 3.25 0.3125 3.25 0 0 Z " fill="#ECE3D9" transform="translate(859,1044)"/>
<path d="M0 0 C0.99 0 1.98 0 3 0 C4.6875 2 4.6875 2 6 4 C5.36191406 4.25394531 4.72382812 4.50789063 4.06640625 4.76953125 C3.24011719 5.11371094 2.41382813 5.45789062 1.5625 5.8125 C0.73878906 6.14894531 -0.08492187 6.48539063 -0.93359375 6.83203125 C-3.33372488 7.88403088 -3.33372488 7.88403088 -4 11 C-4.66 11 -5.32 11 -6 11 C-6 10.01 -6 9.02 -6 8 C-6.66 8 -7.32 8 -8 8 C-6.74157232 4.22471696 -5.37506571 3.89332955 -2 2 C-1.34 1.34 -0.68 0.68 0 0 Z " fill="#EEE5DB" transform="translate(636,1169)"/>
<path d="M0 0 C0.66 0 1.32 0 2 0 C2 3.96 2 7.92 2 12 C2.99 12 3.98 12 5 12 C4.67 14.97 4.34 17.94 4 21 C3.01 21.33 2.02 21.66 1 22 C0.08839714 14.64206267 -0.11459026 7.41017023 0 0 Z " fill="#EBE1D8" transform="translate(1029,1086)"/>
<path d="M0 0 C3.875 1.875 3.875 1.875 5 3 C5.125 5.5 5.125 5.5 5 8 C4.67 8.33 4.34 8.66 4 9 C0.50265772 8.61140641 -2.65788261 8.11403913 -6 7 C-6 6.34 -6 5.68 -6 5 C-4.02 4.34 -2.04 3.68 0 3 C0 2.01 0 1.02 0 0 Z " fill="#EFE6DC" transform="translate(858,1122)"/>
<path d="M0 0 C7.48071749 4.34529148 7.48071749 4.34529148 8.75390625 8.40234375 C8.97531367 10.62696116 9.07940124 12.76684001 9 15 C8.01 15.33 7.02 15.66 6 16 C5.81824219 15.32453125 5.63648438 14.6490625 5.44921875 13.953125 C5.19785156 13.06109375 4.94648437 12.1690625 4.6875 11.25 C4.44386719 10.36828125 4.20023438 9.4865625 3.94921875 8.578125 C2.97717017 5.93799305 1.71145395 4.20523478 0 2 C0 1.34 0 0.68 0 0 Z " fill="#EAE0D6" transform="translate(849,1055)"/>
<path d="M0 0 C2.39763185 2.39763185 2.34280586 3.33273498 2.625 6.625 C2.69976563 7.44226562 2.77453125 8.25953125 2.8515625 9.1015625 C2.92503906 10.04128906 2.92503906 10.04128906 3 11 C2.01 11.33 1.02 11.66 0 12 C0 12.66 0 13.32 0 14 C-1.32 13.67 -2.64 13.34 -4 13 C-3.71125 12.154375 -3.4225 11.30875 -3.125 10.4375 C-1.99227296 6.97638959 -0.98175684 3.50627443 0 0 Z " fill="#E8DDD3" transform="translate(717,1128)"/>
<path d="M0 0 C2.64 0.33 5.28 0.66 8 1 C7.690625 1.5775 7.38125 2.155 7.0625 2.75 C5.34416297 6.38883135 5 8.92920988 5 13 C4.34 13 3.68 13 3 13 C2.9175 12.236875 2.835 11.47375 2.75 10.6875 C1.85384206 7.47626739 0.78388975 6.70625501 -2 5 C-1.67 4.01 -1.34 3.02 -1 2 C-0.01 2.99 0.98 3.98 2 5 C1.34 3.35 0.68 1.7 0 0 Z " fill="#77543B" transform="translate(1121,1097)"/>
<path d="M0 0 C2.97 0.495 2.97 0.495 6 1 C6 2.65 6 4.3 6 6 C6.66 6 7.32 6 8 6 C8 5.34 8 4.68 8 4 C8.66 4 9.32 4 10 4 C10 5.32 10 6.64 10 8 C8.68 8 7.36 8 6 8 C6 8.66 6 9.32 6 10 C5.01 10.33 4.02 10.66 3 11 C0.85714286 3.57142857 0.85714286 3.57142857 0 0 Z " fill="#AF9886" transform="translate(1212,1119)"/>
<path d="M0 0 C3 1 3 1 4.1875 3.125 C5.14531259 6.51418301 5.13746202 9.49471861 5 13 C3.68 12.67 2.36 12.34 1 12 C0.01751476 7.9472484 -0.08159574 4.16138263 0 0 Z " fill="#EDE3DA" transform="translate(1043,1060)"/>
<path d="M0 0 C-0.33 0.99 -0.66 1.98 -1 3 C-6.30120992 5.39816639 -11.46543658 5.84485447 -17 4 C-17 3.34 -17 2.68 -17 2 C-15.3603125 2.061875 -15.3603125 2.061875 -13.6875 2.125 C-8.61347458 1.95299914 -5.43298936 -0.20501847 0 0 Z " fill="#E6DBD1" transform="translate(667,1041)"/>
<path d="M0 0 C0.66 0 1.32 0 2 0 C3.53384846 4.74098614 2.15748044 6.68503913 0 11 C-0.36143592 13.3870658 -0.55819243 15.7345721 -0.69140625 18.14453125 C-0.84416016 19.06298828 -0.84416016 19.06298828 -1 20 C-1.66 20.33 -2.32 20.66 -3 21 C-2.58169634 13.77875787 -2.04538889 6.95432222 0 0 Z " fill="#EBE0D7" transform="translate(1030,1111)"/>
<path d="M0 0 C-4.8737892 3.71947071 -9.94166367 5.88426508 -16 7 C-16.99 6.67 -17.98 6.34 -19 6 C-17.08588443 5.01585567 -15.1686033 4.03786651 -13.25 3.0625 C-12.18265625 2.51722656 -11.1153125 1.97195313 -10.015625 1.41015625 C-4.08679245 -1.36226415 -4.08679245 -1.36226415 0 0 Z " fill="#DDD0C4" transform="translate(939,1081)"/>
<path d="M0 0 C2 2 2 2 2.265625 4.171875 C2.23528962 9.17721328 1.97526844 13.30873746 0 18 C-0.33 18 -0.66 18 -1 18 C-1.02684312 15.18743719 -1.04676188 12.37512759 -1.0625 9.5625 C-1.07087891 8.76005859 -1.07925781 7.95761719 -1.08789062 7.13085938 C-1.0965143 5.08704779 -1.0522815 3.04316098 -1 1 C-0.67 0.67 -0.34 0.34 0 0 Z " fill="#D1C1B4" transform="translate(1047,1079)"/>
<path d="M0 0 C2.05078125 0.03255208 4.1015625 0.06510417 6.15234375 0.09765625 C4.40234375 3.97265625 4.40234375 3.97265625 2.15234375 5.09765625 C-0.18064285 5.13788016 -2.51472291 5.14085872 -4.84765625 5.09765625 C-2.44354091 0.12915121 -2.44354091 0.12915121 0 0 Z " fill="#60391D" transform="translate(1253.84765625,1201.90234375)"/>
<path d="M0 0 C0.66 0 1.32 0 2 0 C1.67 2.31 1.34 4.62 1 7 C1.66 7 2.32 7 3 7 C2.35455571 10.48539917 0.89865603 13.02819057 -1 16 C-2.46322678 13.07354643 -1.88789453 10.67394481 -1.625 7.4375 C-1.53476563 6.26058594 -1.44453125 5.08367187 -1.3515625 3.87109375 C-1 1 -1 1 0 0 Z " fill="#E2D6CB" transform="translate(1384,1131)"/>
<path d="M0 0 C0.99 0.33 1.98 0.66 3 1 C3.33 3.31 3.66 5.62 4 8 C2.02 8.99 2.02 8.99 0 10 C-1 9 -1 9 -1.125 5.5625 C-1 2 -1 2 0 0 Z " fill="#F2E9E1" transform="translate(857,1086)"/>
<path d="M0 0 C1.5 1.1875 1.5 1.1875 3 3 C3.1875 5.6875 3.1875 5.6875 3 8 C0.69 7.67 -1.62 7.34 -4 7 C-3.6875 4.625 -3.6875 4.625 -3 2 C-2.01 1.34 -1.02 0.68 0 0 Z " fill="#F2E9E0" transform="translate(1011,993)"/>
<path d="M0 0 C0.66 0 1.32 0 2 0 C2.96891192 5.37305699 2.96891192 5.37305699 3 8 C1.5625 10 1.5625 10 0 11 C-2.1642235 7.75366476 -2.37569856 6.75698557 -2 3 C-1.34 2.01 -0.68 1.02 0 0 Z " fill="#E0D3C8" transform="translate(1061,889)"/>
<path d="M0 0 C0.763125 0.20625 1.52625 0.4125 2.3125 0.625 C2.3125 1.945 2.3125 3.265 2.3125 4.625 C0.5625 5.375 0.5625 5.375 -1.6875 5.625 C-3.9375 3.6875 -3.9375 3.6875 -5.6875 1.625 C-2.6875 -0.375 -2.6875 -0.375 0 0 Z " fill="#EFE5DC" transform="translate(1057.6875,1132.375)"/>
<path d="M0 0 C1.32 0 2.64 0 4 0 C4 2.97 4 5.94 4 9 C2.68 9 1.36 9 0 9 C0 6.03 0 3.06 0 0 Z " fill="#EFE6DD" transform="translate(1171,1181)"/>
<path d="M0 0 C0.33 1.98 0.66 3.96 1 6 C-2.41099168 6 -5.63088314 5.50854594 -9 5 C-4.22727273 0 -4.22727273 0 0 0 Z " fill="#694328" transform="translate(1270,1191)"/>
<path d="M0 0 C1.76462683 3.08809695 2 4.23312136 2 8 C0.35 8 -1.3 8 -3 8 C-3.33 5.69 -3.66 3.38 -4 1 C-2 0 -2 0 0 0 Z " fill="#E4D9CE" transform="translate(700,1084)"/>
<path d="M0 0 C0.33 2.31 0.66 4.62 1 7 C-4.66153846 5.52307692 -4.66153846 5.52307692 -6.375 2.875 C-6.58125 2.25625 -6.7875 1.6375 -7 1 C-4.53721199 -0.231394 -2.7204945 -0.07159196 0 0 Z " fill="#CDBDAF" transform="translate(1139,1230)"/>
<path d="M0 0 C0.66 0.33 1.32 0.66 2 1 C2 3.97 2 6.94 2 10 C1.01 10 0.02 10 -1 10 C-2.38125018 7.23749964 -2.19079306 5.05268901 -2 2 C-1.34 1.34 -0.68 0.68 0 0 Z " fill="#D7C8BC" transform="translate(731,1127)"/>
<path d="M0 0 C3.465 1.98 3.465 1.98 7 4 C7 5.65 7 7.3 7 9 C4.28902773 8.62607279 3.17999533 8.18642373 1.25 6.1875 C0 4 0 4 0 0 Z " fill="#EBE1D7" transform="translate(826,1065)"/>
<path d="M0 0 C0.33 0.66 0.66 1.32 1 2 C1.99 1.67 2.98 1.34 4 1 C3.67 3.31 3.34 5.62 3 8 C2.67 6.68 2.34 5.36 2 4 C1.34 4 0.68 4 0 4 C0 6.31 0 8.62 0 11 C-0.99 11.33 -1.98 11.66 -3 12 C-2.69230293 10.18667846 -2.37870936 8.37435655 -2.0625 6.5625 C-1.80146484 5.04849609 -1.80146484 5.04849609 -1.53515625 3.50390625 C-1 1 -1 1 0 0 Z " fill="#F8F0E8" transform="translate(1449,1025)"/>
<path d="M0 0 C0.99 1.485 0.99 1.485 2 3 C3.64646685 4.68662458 5.31183067 6.35511706 7 8 C8 9 8 9 8.0625 12.0625 C8.041875 13.031875 8.02125 14.00125 8 15 C7.01 14.67 6.02 14.34 5 14 C4.29373761 12.01363702 3.63106429 10.01151741 3 8 C2.195625 6.948125 2.195625 6.948125 1.375 5.875 C0 4 0 4 0 0 Z " fill="#ECE2D8" transform="translate(817,1069)"/>
<path d="M0 0 C1.60080151 4.00200378 0.29279692 7.04556236 -1 11 C-1.99 11 -2.98 11 -4 11 C-3.56179109 6.44262737 -3.14958831 3.42346555 0 0 Z " fill="#F1E8DF" transform="translate(1299,987)"/>
<path d="M0 0 C1.32 0.33 2.64 0.66 4 1 C4 2.65 4 4.3 4 6 C1.69 5.67 -0.62 5.34 -3 5 C-3 4.01 -3 3.02 -3 2 C-1.68 2 -0.36 2 1 2 C0.67 1.34 0.34 0.68 0 0 Z " fill="#EFE5DC" transform="translate(825,1122)"/>
<path d="M0 0 C0.66 0 1.32 0 2 0 C3.125 5.75 3.125 5.75 2 8 C1.34 8 0.68 8 0 8 C-0.33 9.32 -0.66 10.64 -1 12 C-1.66 11.34 -2.32 10.68 -3 10 C-3 9.01 -3 8.02 -3 7 C-2.01 7 -1.02 7 0 7 C0 4.69 0 2.38 0 0 Z " fill="#C2AFA0" transform="translate(1059,1064)"/>
<path d="M0 0 C1.98 0.66 3.96 1.32 6 2 C6 2.66 6 3.32 6 4 C4.02 4 2.04 4 0 4 C-0.33 5.65 -0.66 7.3 -1 9 C-1.33 9 -1.66 9 -2 9 C-2.125 5.625 -2.125 5.625 -2 2 C-1.34 1.34 -0.68 0.68 0 0 Z " fill="#EADFD6" transform="translate(689,1065)"/>
<path d="M0 0 C1.9375 0.1875 1.9375 0.1875 4 1 C5.25 3.0625 5.25 3.0625 6 5 C4.68 6.32 3.36 7.64 2 9 C1.01 6.36 0.02 3.72 -1 1 C-0.67 0.67 -0.34 0.34 0 0 Z " fill="#E4D9CE" transform="translate(993,958)"/>
<path d="M0 0 C2.5 1.5625 2.5 1.5625 5 4 C5.3125 7.75 5.3125 7.75 5 11 C4.34 11 3.68 11 3 11 C2.690625 10.195625 2.38125 9.39125 2.0625 8.5625 C1.23664655 6.10919595 1.23664655 6.10919595 0 5 C-0.04063832 3.33382885 -0.042721 1.66611905 0 0 Z " fill="#E6DAD0" transform="translate(1100,1182)"/>
<path d="M0 0 C0.1875 3.625 0.1875 3.625 0 7 C-0.66 7 -1.32 7 -2 7 C-2.33 5.02 -2.66 3.04 -3 1 C-4.32 1 -5.64 1 -7 1 C-7 0.34 -7 -0.32 -7 -1 C-3.51418144 -2.2020064 -3.32007656 -2.21338437 0 0 Z " fill="#F3EAE2" transform="translate(739,1042)"/>
<path d="M0 0 C2.2109885 0.42793326 3.98119242 0.99059621 6 2 C5.34 3.65 4.68 5.3 4 7 C3.01 6.67 2.02 6.34 1 6 C-0.1875 3.4375 -0.1875 3.4375 -1 1 C-0.67 0.67 -0.34 0.34 0 0 Z " fill="#E8DDD2" transform="translate(756,1037)"/>
<path d="M0 0 C1.98 0 3.96 0 6 0 C6 1.65 6 3.3 6 5 C4.02 5 2.04 5 0 5 C0 3.35 0 1.7 0 0 Z " fill="#F1E8E0" transform="translate(913,937)"/>
<path d="M0 0 C0.98120464 3.05263664 0.98120464 4.94736336 0 8 C-1.9375 7.1875 -1.9375 7.1875 -4 6 C-4.33 5.01 -4.66 4.02 -5 3 C-3 1 -3 1 0 0 Z " fill="#EDE4DA" transform="translate(1419,1073)"/>
<path d="M0 0 C1.65 0.33 3.3 0.66 5 1 C5 2.98 5 4.96 5 7 C4.34 6.67 3.68 6.34 3 6 C3 4.68 3 3.36 3 2 C2.01 2.495 2.01 2.495 1 3 C1.33 4.65 1.66 6.3 2 8 C0.4375 6.8125 0.4375 6.8125 -1 5 C-0.6875 2.3125 -0.6875 2.3125 0 0 Z " fill="#E2D6CB" transform="translate(724,1062)"/>
<path d="M0 0 C0.99 0.33 1.98 0.66 3 1 C2.67 3.64 2.34 6.28 2 9 C1.01 9 0.02 9 -1 9 C-1.33 7.02 -1.66 5.04 -2 3 C-1.34 2.67 -0.68 2.34 0 2 C0 1.34 0 0.68 0 0 Z " fill="#D4C5B9" transform="translate(840,1020)"/>
<path d="M0 0 C0.66 0 1.32 0 2 0 C3.6875 2.3125 3.6875 2.3125 5 5 C4.67 5.99 4.34 6.98 4 8 C2.0625 7.3125 2.0625 7.3125 0 6 C-0.8125 3.4375 -0.8125 3.4375 -1 1 C-0.67 0.67 -0.34 0.34 0 0 Z " fill="#633D21" transform="translate(740,983)"/>
<path d="M0 0 C2.3125 -0.25 2.3125 -0.25 5 0 C6.8125 2 6.8125 2 8 4 C5.525 5.485 5.525 5.485 3 7 C3 6.01 3 5.02 3 4 C1.68 3.34 0.36 2.68 -1 2 C-0.67 1.34 -0.34 0.68 0 0 Z " fill="#E8DDD3" transform="translate(995,971)"/>
<path d="M0 0 C0.66 0.99 1.32 1.98 2 3 C0.35 5.31 -1.3 7.62 -3 10 C-4.65 9.67 -6.3 9.34 -8 9 C-6 6 -6 6 -3 5 C-1.30117552 2.50240018 -1.30117552 2.50240018 0 0 Z " fill="#AD9583" transform="translate(1153,1099)"/>
<path d="M0 0 C1.32 0.33 2.64 0.66 4 1 C4.33 3.64 4.66 6.28 5 9 C3.35 9 1.7 9 0 9 C0.33 8.34 0.66 7.68 1 7 C1.66 7 2.32 7 3 7 C2.505 6.5875 2.01 6.175 1.5 5.75 C0 4 0 4 0 0 Z " fill="#CAB9AB" transform="translate(1203,1019)"/>
<path d="M0 0 C2 2 2 2 2.3125 4.4375 C1.95209822 7.39279457 1.28773145 8.18887927 -1 10 C-2 9 -2 9 -2.125 6.5 C-2 4 -2 4 -1 3 C-1.33 2.34 -1.66 1.68 -2 1 C-1.34 0.67 -0.68 0.34 0 0 Z " fill="#EFE5DC" transform="translate(712,1127)"/>
<path d="M0 0 C-0.99 1.98 -1.98 3.96 -3 6 C-4.32 5.01 -5.64 4.02 -7 3 C-6.67 2.01 -6.34 1.02 -6 0 C-3.50907189 -1.24546405 -2.58919267 -0.7767578 0 0 Z " fill="#E6DBD1" transform="translate(1055,1115)"/>
<path d="M0 0 C2.8670615 2.8670615 4 4.91591468 4 9 C2.68 9.33 1.36 9.66 0 10 C0.33 7.69 0.66 5.38 1 3 C0.34 3 -0.32 3 -1 3 C-1 3.99 -1 4.98 -1 6 C-1.99 5.67 -2.98 5.34 -4 5 C-3.34 5 -2.68 5 -2 5 C-2 4.01 -2 3.02 -2 2 C-1.34 2 -0.68 2 0 2 C0 1.34 0 0.68 0 0 Z " fill="#D4C5B8" transform="translate(703,1075)"/>
<path d="M0 0 C-1.36983503 3.16115776 -1.9890638 3.9927092 -5 6 C-5.66 6 -6.32 6 -7 6 C-7.99 6.495 -7.99 6.495 -9 7 C-6.79922603 2.09058114 -5.62803596 0 0 0 Z " fill="#724E35" transform="translate(1021,987)"/>
<path d="M0 0 C1.32 0 2.64 0 4 0 C3.25 2.4375 3.25 2.4375 2 5 C0 5.875 0 5.875 -2 6 C-2.66 5.67 -3.32 5.34 -4 5 C-2.25 2.5 -2.25 2.5 0 0 Z " fill="#E5DAD0" transform="translate(1062,882)"/>
<path d="M0 0 C1.65 0 3.3 0 5 0 C4.67 2.31 4.34 4.62 4 7 C3.34 6.67 2.68 6.34 2 6 C2 5.34 2 4.68 2 4 C1.01 4 0.02 4 -1 4 C-0.67 2.68 -0.34 1.36 0 0 Z " fill="#E8DDD3" transform="translate(1427,1027)"/>
<path d="M0 0 C1.32 0 2.64 0 4 0 C4 0.66 4 1.32 4 2 C4.99 2.33 5.98 2.66 7 3 C4.69 3.66 2.38 4.32 0 5 C-0.5625 3.0625 -0.5625 3.0625 -1 1 C-0.67 0.67 -0.34 0.34 0 0 Z " fill="#BDA99A" transform="translate(1122,1142)"/>
<path d="M0 0 C2.62187494 1.04874998 3.79371361 1.64931313 5.25 4.125 C5.4975 4.74375 5.745 5.3625 6 6 C4.33388095 6.042721 2.66617115 6.04063832 1 6 C0 5 0 5 -0.0625 2.4375 C-0.041875 1.633125 -0.02125 0.82875 0 0 Z " fill="#DDCFC4" transform="translate(1260,1102)"/>
<path d="M0 0 C0.66 0 1.32 0 2 0 C3.0257259 4.41062136 3.03684712 6.92630576 1 11 C0.67 11 0.34 11 0 11 C0 7.37 0 3.74 0 0 Z " fill="#A78F7C" transform="translate(990,978)"/>
<path d="M0 0 C1.34444159 0.90029571 2.67531438 1.82088022 4 2.75 C5.11375 3.51570312 5.11375 3.51570312 6.25 4.296875 C6.8275 4.85890625 7.405 5.4209375 8 6 C8 7.32 8 8.64 8 10 C7.34 10 6.68 10 6 10 C5.731875 9.38125 5.46375 8.7625 5.1875 8.125 C4.04443152 5.7004767 4.04443152 5.7004767 1 4 C1 3.34 1 2.68 1 2 C0.34 1.67 -0.32 1.34 -1 1 C-0.67 0.67 -0.34 0.34 0 0 Z " fill="#D2C2B5" transform="translate(1367,890)"/>
<path d="M0 0 C0.99 0 1.98 0 3 0 C2.67 2.64 2.34 5.28 2 8 C1.01 7.67 0.02 7.34 -1 7 C-1.04254356 5.00045254 -1.04080783 2.99958364 -1 1 C-0.67 0.67 -0.34 0.34 0 0 Z " fill="#77543B" transform="translate(1130,1105)"/>
<path d="M0 0 C0.33 0 0.66 0 1 0 C1 3.3 1 6.6 1 10 C-0.65 10.33 -2.3 10.66 -4 11 C-4 10.01 -4 9.02 -4 8 C-3.34 8 -2.68 8 -2 8 C-1.34 5.36 -0.68 2.72 0 0 Z " fill="#9C826D" transform="translate(1449,1029)"/>
<path d="M0 0 C0.66 0 1.32 0 2 0 C2.20496094 0.55429687 2.40992188 1.10859375 2.62109375 1.6796875 C2.89050781 2.40414063 3.15992188 3.12859375 3.4375 3.875 C3.70433594 4.59429688 3.97117187 5.31359375 4.24609375 6.0546875 C4.97916854 8.03648845 4.97916854 8.03648845 6 10 C4.35 9.67 2.7 9.34 1 9 C0.67 6.03 0.34 3.06 0 0 Z " fill="#B29C8B" transform="translate(777,1023)"/>
<path d="M0 0 C0.33 0 0.66 0 1 0 C1 2.64 1 5.28 1 8 C0.01 8.33 -0.98 8.66 -2 9 C-2.33 6.69 -2.66 4.38 -3 2 C-2.01 2 -1.02 2 0 2 C0 1.34 0 0.68 0 0 Z " fill="#D1C2B5" transform="translate(1036,957)"/>
<path d="M0 0 C3 4 3 4 3.375 6.625 C3.25125 7.40875 3.1275 8.1925 3 9 C2.01 9.66 1.02 10.32 0 11 C0 7.37 0 3.74 0 0 Z " fill="#E5DACF" transform="translate(703,1165)"/>
<path d="M0 0 C3.57983659 3.34118082 5.89716734 5.73768141 6.125 10.75 C6.08375 11.4925 6.0425 12.235 6 13 C5.67 11.68 5.34 10.36 5 9 C4.34 9 3.68 9 3 9 C0.56839395 5.63316085 0 4.26649636 0 0 Z " fill="#E2D5CB" transform="translate(1298,938)"/>
<path d="M0 0 C0.66 0.33 1.32 0.66 2 1 C1.04882866 2.1725131 0.08882991 3.33787015 -0.875 4.5 C-1.40867187 5.1496875 -1.94234375 5.799375 -2.4921875 6.46875 C-2.98976563 6.9740625 -3.48734375 7.479375 -4 8 C-4.66 8 -5.32 8 -6 8 C-5.67 6.35 -5.34 4.7 -5 3 C-4.01 3 -3.02 3 -2 3 C-2 2.34 -2 1.68 -2 1 C-1.34 0.67 -0.68 0.34 0 0 Z " fill="#D3C4B7" transform="translate(994,924)"/>
<path d="M0 0 C0.36625971 4.51720311 0.36625971 4.51720311 -1.375 6.8125 C-3 8 -3 8 -5 8 C-4.40138258 5.64828869 -3.73075648 3.3140622 -3 1 C-1 0 -1 0 0 0 Z " fill="#E9DFD5" transform="translate(1026,1000)"/>
<path d="M0 0 C1.98 0 3.96 0 6 0 C5.360625 0.268125 4.72125 0.53625 4.0625 0.8125 C1.66868314 1.88667752 1.66868314 1.88667752 1 5 C0.01 4.67 -0.98 4.34 -2 4 C-1.34 2.68 -0.68 1.36 0 0 Z " fill="#EAE0D6" transform="translate(1269,1205)"/>
<path d="M0 0 C0.99 0.495 0.99 0.495 2 1 C1.67 1.66 1.34 2.32 1 3 C2.32 3 3.64 3 5 3 C4.67 4.32 4.34 5.64 4 7 C2.68 6.67 1.36 6.34 0 6 C0 4.02 0 2.04 0 0 Z " fill="#D6C7BA" transform="translate(1007,1109)"/>
<path d="M0 0 C3.875 0.875 3.875 0.875 5 2 C5.04063832 3.66617115 5.042721 5.33388095 5 7 C3.68 6.67 2.36 6.34 1 6 C0.67 4.02 0.34 2.04 0 0 Z " fill="#886953" transform="translate(1434,1086)"/>
<path d="M0 0 C1.67542976 0.28604898 3.34385343 0.61781233 5 1 C4.67 1.99 4.34 2.98 4 4 C2.68 4 1.36 4 0 4 C-0.33 4.66 -0.66 5.32 -1 6 C-1.042721 4.33388095 -1.04063832 2.66617115 -1 1 C-0.67 0.67 -0.34 0.34 0 0 Z " fill="#D8CABE" transform="translate(689,1080)"/>
<path d="M0 0 C1.98 0.99 1.98 0.99 4 2 C4 4.31 4 6.62 4 9 C1.49701566 6.06171403 0.53069061 3.82097239 0 0 Z " fill="#F0E7DE" transform="translate(1051,993)"/>
<path d="M0 0 C0.99 0 1.98 0 3 0 C3 1.98 3 3.96 3 6 C2.01 6.33 1.02 6.66 0 7 C0 4.69 0 2.38 0 0 Z " fill="#D6C8BC" transform="translate(1046,1126)"/>
<path d="M0 0 C1.65 0 3.3 0 5 0 C4.67 1.32 4.34 2.64 4 4 C2.35 3.67 0.7 3.34 -1 3 C-0.67 2.01 -0.34 1.02 0 0 Z " fill="#E4D8CE" transform="translate(646,1115)"/>
<path d="M0 0 C0.66 0 1.32 0 2 0 C2.33 2.64 2.66 5.28 3 8 C2.01 7.67 1.02 7.34 0 7 C-1.17755913 4.05610218 -1.03348696 3.10046087 0 0 Z " fill="#724F35" transform="translate(1217,1111)"/>
<path d="M0 0 C0.99 0.33 1.98 0.66 3 1 C0.03716687 3.38672669 -2.94270509 5.7353371 -6 8 C-6 6.68 -6 5.36 -6 4 C-3.5625 2.3125 -3.5625 2.3125 -1 1 C-0.67 0.67 -0.34 0.34 0 0 Z " fill="#DCCFC4" transform="translate(587,1079)"/>
<path d="M0 0 C0.66 0.33 1.32 0.66 2 1 C1.67 3.31 1.34 5.62 1 8 C0.01 8.33 -0.98 8.66 -2 9 C-1.34 6.03 -0.68 3.06 0 0 Z " fill="#DACCC1" transform="translate(1043,940)"/>
<path d="M0 0 C0.66 0 1.32 0 2 0 C2.33 1.65 2.66 3.3 3 5 C1.68 5.33 0.36 5.66 -1 6 C-1.042721 4.33388095 -1.04063832 2.66617115 -1 1 C-0.67 0.67 -0.34 0.34 0 0 Z " fill="#ECE2D9" transform="translate(825,1096)"/>
<path d="M0 0 C0.99 0.33 1.98 0.66 3 1 C2.67 2.32 2.34 3.64 2 5 C0.68 5 -0.64 5 -2 5 C-2 4.01 -2 3.02 -2 2 C-1.34 2 -0.68 2 0 2 C0 1.34 0 0.68 0 0 Z " fill="#F4EBE3" transform="translate(854,982)"/>
<path d="M0 0 C0.66 0 1.32 0 2 0 C2.6875 2.3125 2.6875 2.3125 3 5 C1.5625 6.8125 1.5625 6.8125 0 8 C0 5.36 0 2.72 0 0 Z " fill="#C8B6A8" transform="translate(1034,1061)"/>
<path d="M0 0 C2.31 0.66 4.62 1.32 7 2 C7 2.66 7 3.32 7 4 C4.69 3.67 2.38 3.34 0 3 C0 2.01 0 1.02 0 0 Z " fill="#78553C" transform="translate(684,981)"/>
<path d="M0 0 C1.32 0 2.64 0 4 0 C3.67 1.32 3.34 2.64 3 4 C1.68 4 0.36 4 -1 4 C-0.67 2.68 -0.34 1.36 0 0 Z " fill="#EFE6DD" transform="translate(1031,876)"/>
<path d="M0 0 C2.375 -0.1875 2.375 -0.1875 5 0 C5.66 0.99 6.32 1.98 7 3 C4.36 2.67 1.72 2.34 -1 2 C-0.67 1.34 -0.34 0.68 0 0 Z " fill="#E7DBD1" transform="translate(1175,1153)"/>
<path d="M0 0 C0.66 0 1.32 0 2 0 C2.625 2.3125 2.625 2.3125 3 5 C2.34 5.99 1.68 6.98 1 8 C-0.35439668 5.29120665 -0.06501451 2.99066732 0 0 Z " fill="#AD9684" transform="translate(1030,1111)"/>
<path d="M0 0 C1.485 0.99 1.485 0.99 3 2 C2.67 3.65 2.34 5.3 2 7 C1.01 6.34 0.02 5.68 -1 5 C-0.67 3.35 -0.34 1.7 0 0 Z " fill="#AA9280" transform="translate(1220,1100)"/>
<path d="M0 0 C0.99 0.33 1.98 0.66 3 1 C2.67 2.65 2.34 4.3 2 6 C1.34 6 0.68 6 0 6 C-0.38218767 4.34385343 -0.71395102 2.67542976 -1 1 C-0.67 0.67 -0.34 0.34 0 0 Z " fill="#E0D4C8" transform="translate(1009,1101)"/>
<path d="M0 0 C0.99 0.495 0.99 0.495 2 1 C2 1.66 2 2.32 2 3 C2.66 3 3.32 3 4 3 C4 3.66 4 4.32 4 5 C2 6.625 2 6.625 0 8 C0 5.36 0 2.72 0 0 Z " fill="#F3EBE3" transform="translate(1402,1030)"/>
<path d="M0 0 C1.32 0 2.64 0 4 0 C4.33 1.32 4.66 2.64 5 4 C3.35 3.67 1.7 3.34 0 3 C0 2.01 0 1.02 0 0 Z " fill="#F8F0E9" transform="translate(1054,901)"/>
</svg>
